<svg xmlns="http://www.w3.org/2000/svg" viewBox="0 0 1024 1024" width="1024" height="1024">
  <defs>
    <radialGradient id="bg" cx="50%" cy="42%" r="75%">
      <stop offset="0" stop-color="#231827"/>
      <stop offset="1" stop-color="#150e14"/>
    </radialGradient>
  </defs>
  <rect width="1024" height="1024" fill="url(#bg)"/>
  <!-- Знак noova, чуть меньше и выше центра: справа внизу — значок проверки. -->
  <g transform="translate(455 440) scale(7.3) translate(-50 -47)" fill="none" stroke-linejoin="round" stroke-linecap="round" stroke-width="6">
    <path d="M50,82 C30,64 12,52 12,34 C12,20 24,12 36,16 C44,18 48,24 50,30 C52,24 56,18 64,16 C76,12 88,20 88,34 C88,52 70,64 50,82 Z" stroke="#ec5a8b"/>
    <path d="M50,68 C42,60 42,52 50,42 C58,52 58,60 50,68 Z" stroke="#ff9a70"/>
  </g>
  <!-- Значок healthcheck: зелёный круг с пульсом. Обводка цвета фона отделяет его от знака. -->
  <g transform="translate(700 700)">
    <circle r="205" fill="#2fbf71" stroke="#150e14" stroke-width="28"/>
    <path d="M-135 10 H-70 L-40 -85 L10 105 L48 -35 L70 10 H135" fill="none" stroke="#ffffff" stroke-width="30" stroke-linecap="round" stroke-linejoin="round"/>
  </g>
</svg>
